<mxfile host="app.diagrams.net" modified="2021-09-08T03:31:56.124Z" agent="5.0 (X11; Linux x86_64) AppleWebKit/537.36 (KHTML, like Gecko) Chrome/92.0.4515.159 Safari/537.36" etag="YuW62DtQodT-F4X2AZ6c" version="15.0.3" type="github">
  <diagram id="C5RBs43oDa-KdzZeNtuy" name="Page-1">
    <mxGraphModel dx="3555" dy="1863" grid="1" gridSize="10" guides="1" tooltips="1" connect="1" arrows="1" fold="1" page="1" pageScale="1" pageWidth="827" pageHeight="1169" math="0" shadow="0">
      <root>
        <mxCell id="WIyWlLk6GJQsqaUBKTNV-0" />
        <mxCell id="WIyWlLk6GJQsqaUBKTNV-1" parent="WIyWlLk6GJQsqaUBKTNV-0" />
        <mxCell id="WIyWlLk6GJQsqaUBKTNV-2" value="" style="rounded=0;html=1;jettySize=auto;orthogonalLoop=1;fontSize=11;endArrow=block;endFill=0;endSize=8;strokeWidth=1;shadow=0;labelBackgroundColor=none;edgeStyle=orthogonalEdgeStyle;entryX=0.5;entryY=0;entryDx=0;entryDy=0;exitX=0.5;exitY=1;exitDx=0;exitDy=0;" parent="WIyWlLk6GJQsqaUBKTNV-1" source="WIyWlLk6GJQsqaUBKTNV-3" target="hCko35gJ8mrxwfLqzyRQ-0" edge="1">
          <mxGeometry relative="1" as="geometry" />
        </mxCell>
        <mxCell id="WIyWlLk6GJQsqaUBKTNV-3" value="Begin" style="rounded=1;whiteSpace=wrap;html=1;fontSize=12;glass=0;strokeWidth=1;shadow=0;" parent="WIyWlLk6GJQsqaUBKTNV-1" vertex="1">
          <mxGeometry x="160" y="80" width="120" height="40" as="geometry" />
        </mxCell>
        <mxCell id="WIyWlLk6GJQsqaUBKTNV-11" value="End" style="rounded=1;whiteSpace=wrap;html=1;fontSize=12;glass=0;strokeWidth=1;shadow=0;" parent="WIyWlLk6GJQsqaUBKTNV-1" vertex="1">
          <mxGeometry x="160" y="1450" width="120" height="40" as="geometry" />
        </mxCell>
        <object label="String permission, int pid, int uid" id="hCko35gJ8mrxwfLqzyRQ-0">
          <mxCell style="shape=parallelogram;perimeter=parallelogramPerimeter;whiteSpace=wrap;html=1;fixedSize=1;" vertex="1" parent="WIyWlLk6GJQsqaUBKTNV-1">
            <mxGeometry x="110" y="170" width="220" height="50" as="geometry" />
          </mxCell>
        </object>
        <mxCell id="hCko35gJ8mrxwfLqzyRQ-8" style="edgeStyle=orthogonalEdgeStyle;rounded=0;orthogonalLoop=1;jettySize=auto;html=1;entryX=0.5;entryY=0;entryDx=0;entryDy=0;endArrow=block;endFill=0;endSize=8;" edge="1" parent="WIyWlLk6GJQsqaUBKTNV-1" source="hCko35gJ8mrxwfLqzyRQ-1" target="hCko35gJ8mrxwfLqzyRQ-6">
          <mxGeometry relative="1" as="geometry" />
        </mxCell>
        <mxCell id="hCko35gJ8mrxwfLqzyRQ-9" style="edgeStyle=orthogonalEdgeStyle;rounded=0;orthogonalLoop=1;jettySize=auto;html=1;exitX=1;exitY=0.5;exitDx=0;exitDy=0;entryX=0.5;entryY=0;entryDx=0;entryDy=0;endArrow=block;endFill=0;endSize=8;" edge="1" parent="WIyWlLk6GJQsqaUBKTNV-1" source="hCko35gJ8mrxwfLqzyRQ-1" target="hCko35gJ8mrxwfLqzyRQ-7">
          <mxGeometry relative="1" as="geometry" />
        </mxCell>
        <mxCell id="hCko35gJ8mrxwfLqzyRQ-1" value="permission == null" style="rhombus;whiteSpace=wrap;html=1;" vertex="1" parent="WIyWlLk6GJQsqaUBKTNV-1">
          <mxGeometry x="140" y="260" width="160" height="50" as="geometry" />
        </mxCell>
        <mxCell id="hCko35gJ8mrxwfLqzyRQ-5" value="" style="endArrow=block;html=1;entryX=0.5;entryY=0;entryDx=0;entryDy=0;exitX=0.5;exitY=1;exitDx=0;exitDy=0;endFill=0;rounded=0;endSize=8;" edge="1" parent="WIyWlLk6GJQsqaUBKTNV-1" source="hCko35gJ8mrxwfLqzyRQ-0" target="hCko35gJ8mrxwfLqzyRQ-1">
          <mxGeometry width="50" height="50" relative="1" as="geometry">
            <mxPoint x="100" y="290" as="sourcePoint" />
            <mxPoint x="150" y="240" as="targetPoint" />
          </mxGeometry>
        </mxCell>
        <mxCell id="hCko35gJ8mrxwfLqzyRQ-42" style="edgeStyle=orthogonalEdgeStyle;rounded=0;orthogonalLoop=1;jettySize=auto;html=1;exitX=0.5;exitY=1;exitDx=0;exitDy=0;entryX=0.5;entryY=0;entryDx=0;entryDy=0;endArrow=block;endFill=0;endSize=8;" edge="1" parent="WIyWlLk6GJQsqaUBKTNV-1" source="hCko35gJ8mrxwfLqzyRQ-6" target="WIyWlLk6GJQsqaUBKTNV-11">
          <mxGeometry relative="1" as="geometry" />
        </mxCell>
        <mxCell id="hCko35gJ8mrxwfLqzyRQ-6" value="return PackageManager.PERMISSION_DENIED;(-1)" style="shape=parallelogram;perimeter=parallelogramPerimeter;whiteSpace=wrap;html=1;fixedSize=1;" vertex="1" parent="WIyWlLk6GJQsqaUBKTNV-1">
          <mxGeometry x="60" y="370" width="320" height="30" as="geometry" />
        </mxCell>
        <mxCell id="hCko35gJ8mrxwfLqzyRQ-14" style="edgeStyle=orthogonalEdgeStyle;rounded=0;orthogonalLoop=1;jettySize=auto;html=1;entryX=0.5;entryY=0;entryDx=0;entryDy=0;endArrow=block;endFill=0;endSize=8;" edge="1" parent="WIyWlLk6GJQsqaUBKTNV-1" source="hCko35gJ8mrxwfLqzyRQ-7" target="hCko35gJ8mrxwfLqzyRQ-13">
          <mxGeometry relative="1" as="geometry" />
        </mxCell>
        <mxCell id="hCko35gJ8mrxwfLqzyRQ-7" value="permission, pid, uid, -1, true" style="shape=parallelogram;perimeter=parallelogramPerimeter;whiteSpace=wrap;html=1;fixedSize=1;" vertex="1" parent="WIyWlLk6GJQsqaUBKTNV-1">
          <mxGeometry x="535" y="370" width="190" height="30" as="geometry" />
        </mxCell>
        <mxCell id="hCko35gJ8mrxwfLqzyRQ-11" value="Yes" style="text;html=1;align=center;verticalAlign=middle;resizable=0;points=[];autosize=1;strokeColor=none;" vertex="1" parent="WIyWlLk6GJQsqaUBKTNV-1">
          <mxGeometry x="220" y="330" width="40" height="20" as="geometry" />
        </mxCell>
        <mxCell id="hCko35gJ8mrxwfLqzyRQ-12" value="No" style="text;html=1;align=center;verticalAlign=middle;resizable=0;points=[];autosize=1;strokeColor=none;" vertex="1" parent="WIyWlLk6GJQsqaUBKTNV-1">
          <mxGeometry x="320" y="260" width="30" height="20" as="geometry" />
        </mxCell>
        <mxCell id="hCko35gJ8mrxwfLqzyRQ-16" style="edgeStyle=orthogonalEdgeStyle;rounded=0;orthogonalLoop=1;jettySize=auto;html=1;entryX=0.5;entryY=0;entryDx=0;entryDy=0;endArrow=block;endFill=0;endSize=8;" edge="1" parent="WIyWlLk6GJQsqaUBKTNV-1" source="hCko35gJ8mrxwfLqzyRQ-13" target="hCko35gJ8mrxwfLqzyRQ-15">
          <mxGeometry relative="1" as="geometry" />
        </mxCell>
        <mxCell id="hCko35gJ8mrxwfLqzyRQ-22" style="edgeStyle=orthogonalEdgeStyle;rounded=0;orthogonalLoop=1;jettySize=auto;html=1;exitX=1;exitY=0.5;exitDx=0;exitDy=0;entryX=0.5;entryY=0;entryDx=0;entryDy=0;endArrow=block;endFill=0;endSize=8;" edge="1" parent="WIyWlLk6GJQsqaUBKTNV-1" source="hCko35gJ8mrxwfLqzyRQ-13" target="hCko35gJ8mrxwfLqzyRQ-17">
          <mxGeometry relative="1" as="geometry">
            <Array as="points">
              <mxPoint x="900" y="485" />
            </Array>
          </mxGeometry>
        </mxCell>
        <mxCell id="hCko35gJ8mrxwfLqzyRQ-13" value="pid == MY_PID" style="rhombus;whiteSpace=wrap;html=1;" vertex="1" parent="WIyWlLk6GJQsqaUBKTNV-1">
          <mxGeometry x="565" y="457.5" width="130" height="55" as="geometry" />
        </mxCell>
        <mxCell id="hCko35gJ8mrxwfLqzyRQ-43" style="edgeStyle=orthogonalEdgeStyle;rounded=0;orthogonalLoop=1;jettySize=auto;html=1;entryX=0.5;entryY=0;entryDx=0;entryDy=0;endArrow=block;endFill=0;endSize=8;" edge="1" parent="WIyWlLk6GJQsqaUBKTNV-1" source="hCko35gJ8mrxwfLqzyRQ-15" target="WIyWlLk6GJQsqaUBKTNV-11">
          <mxGeometry relative="1" as="geometry" />
        </mxCell>
        <mxCell id="hCko35gJ8mrxwfLqzyRQ-15" value="return PackageManager.PERMISSION_GRANTED;(0)" style="shape=parallelogram;perimeter=parallelogramPerimeter;whiteSpace=wrap;html=1;fixedSize=1;" vertex="1" parent="WIyWlLk6GJQsqaUBKTNV-1">
          <mxGeometry x="460" y="570" width="340" height="30" as="geometry" />
        </mxCell>
        <mxCell id="hCko35gJ8mrxwfLqzyRQ-26" style="edgeStyle=orthogonalEdgeStyle;rounded=0;orthogonalLoop=1;jettySize=auto;html=1;entryX=0.5;entryY=0;entryDx=0;entryDy=0;endArrow=block;endFill=0;endSize=8;" edge="1" parent="WIyWlLk6GJQsqaUBKTNV-1" source="hCko35gJ8mrxwfLqzyRQ-17" target="hCko35gJ8mrxwfLqzyRQ-25">
          <mxGeometry relative="1" as="geometry" />
        </mxCell>
        <mxCell id="hCko35gJ8mrxwfLqzyRQ-31" style="edgeStyle=orthogonalEdgeStyle;rounded=0;orthogonalLoop=1;jettySize=auto;html=1;entryX=0.5;entryY=0;entryDx=0;entryDy=0;endArrow=block;endFill=0;endSize=8;" edge="1" parent="WIyWlLk6GJQsqaUBKTNV-1" source="hCko35gJ8mrxwfLqzyRQ-17" target="hCko35gJ8mrxwfLqzyRQ-7">
          <mxGeometry relative="1" as="geometry">
            <mxPoint x="1385" y="950" as="targetPoint" />
            <Array as="points">
              <mxPoint x="1400" y="690" />
              <mxPoint x="1400" y="350" />
              <mxPoint x="630" y="350" />
            </Array>
          </mxGeometry>
        </mxCell>
        <mxCell id="hCko35gJ8mrxwfLqzyRQ-17" value="permission != null" style="rhombus;whiteSpace=wrap;html=1;" vertex="1" parent="WIyWlLk6GJQsqaUBKTNV-1">
          <mxGeometry x="810" y="660" width="180" height="60" as="geometry" />
        </mxCell>
        <mxCell id="hCko35gJ8mrxwfLqzyRQ-19" value="Yes" style="text;html=1;align=center;verticalAlign=middle;resizable=0;points=[];autosize=1;strokeColor=none;" vertex="1" parent="WIyWlLk6GJQsqaUBKTNV-1">
          <mxGeometry x="630" y="520" width="40" height="20" as="geometry" />
        </mxCell>
        <mxCell id="hCko35gJ8mrxwfLqzyRQ-21" value="No" style="text;html=1;align=center;verticalAlign=middle;resizable=0;points=[];autosize=1;strokeColor=none;" vertex="1" parent="WIyWlLk6GJQsqaUBKTNV-1">
          <mxGeometry x="720" y="460" width="30" height="20" as="geometry" />
        </mxCell>
        <mxCell id="hCko35gJ8mrxwfLqzyRQ-23" value="&amp;nbsp; &amp;nbsp; public static final int MY_PID = myPid();" style="text;html=1;align=center;verticalAlign=middle;resizable=0;points=[];autosize=1;strokeColor=none;" vertex="1" parent="WIyWlLk6GJQsqaUBKTNV-1">
          <mxGeometry x="1825" y="175" width="240" height="20" as="geometry" />
        </mxCell>
        <mxCell id="hCko35gJ8mrxwfLqzyRQ-24" value="&lt;span&gt;public static int checkComponentPermission(String permission, int pid, int uid,&lt;/span&gt;&lt;div&gt;&amp;nbsp; &amp;nbsp; &amp;nbsp; &amp;nbsp; &amp;nbsp; &amp;nbsp; int owningUid, boolean exported) {&lt;/div&gt;&lt;div&gt;&amp;nbsp; &amp;nbsp; &amp;nbsp; &amp;nbsp; if (pid == MY_PID) {&lt;/div&gt;&lt;div&gt;&amp;nbsp; &amp;nbsp; &amp;nbsp; &amp;nbsp; &amp;nbsp; &amp;nbsp; return PackageManager.PERMISSION_GRANTED;&lt;/div&gt;&lt;div&gt;&amp;nbsp; &amp;nbsp; &amp;nbsp; &amp;nbsp; }&lt;/div&gt;&lt;div&gt;&amp;nbsp; &amp;nbsp; &amp;nbsp; &amp;nbsp; // If there is an explicit permission being checked, and this is coming from a process&lt;/div&gt;&lt;div&gt;&amp;nbsp; &amp;nbsp; &amp;nbsp; &amp;nbsp; // that has been denied access to that permission, then just deny.&amp;nbsp; Ultimately this may&lt;/div&gt;&lt;div&gt;&amp;nbsp; &amp;nbsp; &amp;nbsp; &amp;nbsp; // not be quite right -- it means that even if the caller would have access for another&lt;/div&gt;&lt;div&gt;&amp;nbsp; &amp;nbsp; &amp;nbsp; &amp;nbsp; // reason (such as being the owner of the component it is trying to access), it would still&lt;/div&gt;&lt;div&gt;&amp;nbsp; &amp;nbsp; &amp;nbsp; &amp;nbsp; // fail.&amp;nbsp; This also means the system and root uids would be able to deny themselves&lt;/div&gt;&lt;div&gt;&amp;nbsp; &amp;nbsp; &amp;nbsp; &amp;nbsp; // access to permissions, which...&amp;nbsp; well okay. ¯\_(ツ)_/¯&lt;/div&gt;&lt;div&gt;&amp;nbsp; &amp;nbsp; &amp;nbsp; &amp;nbsp; if (permission != null) {&lt;/div&gt;&lt;div&gt;&amp;nbsp; &amp;nbsp; &amp;nbsp; &amp;nbsp; &amp;nbsp; &amp;nbsp; synchronized (sActiveProcessInfoSelfLocked) {&lt;/div&gt;&lt;div&gt;&amp;nbsp; &amp;nbsp; &amp;nbsp; &amp;nbsp; &amp;nbsp; &amp;nbsp; &amp;nbsp; &amp;nbsp; ProcessInfo procInfo = sActiveProcessInfoSelfLocked.get(pid);&lt;/div&gt;&lt;div&gt;&amp;nbsp; &amp;nbsp; &amp;nbsp; &amp;nbsp; &amp;nbsp; &amp;nbsp; &amp;nbsp; &amp;nbsp; if (procInfo != null &amp;amp;&amp;amp; procInfo.deniedPermissions != null&lt;/div&gt;&lt;div&gt;&amp;nbsp; &amp;nbsp; &amp;nbsp; &amp;nbsp; &amp;nbsp; &amp;nbsp; &amp;nbsp; &amp;nbsp; &amp;nbsp; &amp;nbsp; &amp;nbsp; &amp;nbsp; &amp;amp;&amp;amp; procInfo.deniedPermissions.contains(permission)) {&lt;/div&gt;&lt;div&gt;&amp;nbsp; &amp;nbsp; &amp;nbsp; &amp;nbsp; &amp;nbsp; &amp;nbsp; &amp;nbsp; &amp;nbsp; &amp;nbsp; &amp;nbsp; return PackageManager.PERMISSION_DENIED;&lt;/div&gt;&lt;div&gt;&amp;nbsp; &amp;nbsp; &amp;nbsp; &amp;nbsp; &amp;nbsp; &amp;nbsp; &amp;nbsp; &amp;nbsp; }&lt;/div&gt;&lt;div&gt;&amp;nbsp; &amp;nbsp; &amp;nbsp; &amp;nbsp; &amp;nbsp; &amp;nbsp; }&lt;/div&gt;&lt;div&gt;&amp;nbsp; &amp;nbsp; &amp;nbsp; &amp;nbsp; }&lt;/div&gt;&lt;div&gt;&amp;nbsp; &amp;nbsp; &amp;nbsp; &amp;nbsp; return ActivityManager.checkComponentPermission(permission, uid,&lt;/div&gt;&lt;div&gt;&amp;nbsp; &amp;nbsp; &amp;nbsp; &amp;nbsp; &amp;nbsp; &amp;nbsp; &amp;nbsp; &amp;nbsp; owningUid, exported);&lt;/div&gt;&lt;div&gt;&amp;nbsp; &amp;nbsp; }&lt;/div&gt;" style="text;html=1;align=left;verticalAlign=middle;resizable=0;points=[];autosize=1;strokeColor=none;" vertex="1" parent="WIyWlLk6GJQsqaUBKTNV-1">
          <mxGeometry x="1725" y="260" width="500" height="330" as="geometry" />
        </mxCell>
        <mxCell id="hCko35gJ8mrxwfLqzyRQ-32" style="edgeStyle=orthogonalEdgeStyle;rounded=0;orthogonalLoop=1;jettySize=auto;html=1;entryX=0.5;entryY=0;entryDx=0;entryDy=0;endArrow=block;endFill=0;endSize=8;" edge="1" parent="WIyWlLk6GJQsqaUBKTNV-1" source="hCko35gJ8mrxwfLqzyRQ-25" target="hCko35gJ8mrxwfLqzyRQ-7">
          <mxGeometry relative="1" as="geometry">
            <mxPoint x="1385" y="950" as="targetPoint" />
            <Array as="points">
              <mxPoint x="1400" y="845" />
              <mxPoint x="1400" y="350" />
              <mxPoint x="630" y="350" />
            </Array>
          </mxGeometry>
        </mxCell>
        <mxCell id="hCko35gJ8mrxwfLqzyRQ-49" style="edgeStyle=orthogonalEdgeStyle;rounded=0;orthogonalLoop=1;jettySize=auto;html=1;entryX=0.5;entryY=0;entryDx=0;entryDy=0;endArrow=block;endFill=0;endSize=8;" edge="1" parent="WIyWlLk6GJQsqaUBKTNV-1" source="hCko35gJ8mrxwfLqzyRQ-25" target="hCko35gJ8mrxwfLqzyRQ-46">
          <mxGeometry relative="1" as="geometry" />
        </mxCell>
        <mxCell id="hCko35gJ8mrxwfLqzyRQ-25" value="&lt;div&gt;procInfo != null&lt;/div&gt;" style="rhombus;whiteSpace=wrap;html=1;" vertex="1" parent="WIyWlLk6GJQsqaUBKTNV-1">
          <mxGeometry x="812.5" y="820" width="175" height="50" as="geometry" />
        </mxCell>
        <mxCell id="hCko35gJ8mrxwfLqzyRQ-27" value="Yes" style="text;html=1;align=center;verticalAlign=middle;resizable=0;points=[];autosize=1;strokeColor=none;" vertex="1" parent="WIyWlLk6GJQsqaUBKTNV-1">
          <mxGeometry x="900" y="740" width="40" height="20" as="geometry" />
        </mxCell>
        <mxCell id="hCko35gJ8mrxwfLqzyRQ-44" style="edgeStyle=orthogonalEdgeStyle;rounded=0;orthogonalLoop=1;jettySize=auto;html=1;exitX=0.5;exitY=1;exitDx=0;exitDy=0;entryX=0.5;entryY=0;entryDx=0;entryDy=0;endArrow=block;endFill=0;endSize=8;" edge="1" parent="WIyWlLk6GJQsqaUBKTNV-1" source="hCko35gJ8mrxwfLqzyRQ-28" target="WIyWlLk6GJQsqaUBKTNV-11">
          <mxGeometry relative="1" as="geometry" />
        </mxCell>
        <mxCell id="hCko35gJ8mrxwfLqzyRQ-28" value="return PackageManager.PERMISSION_DENIED;(-1)" style="shape=parallelogram;perimeter=parallelogramPerimeter;whiteSpace=wrap;html=1;fixedSize=1;" vertex="1" parent="WIyWlLk6GJQsqaUBKTNV-1">
          <mxGeometry x="740" y="1250" width="320" height="30" as="geometry" />
        </mxCell>
        <mxCell id="hCko35gJ8mrxwfLqzyRQ-33" value="No" style="text;html=1;align=center;verticalAlign=middle;resizable=0;points=[];autosize=1;strokeColor=none;" vertex="1" parent="WIyWlLk6GJQsqaUBKTNV-1">
          <mxGeometry x="1246" y="670" width="30" height="20" as="geometry" />
        </mxCell>
        <mxCell id="hCko35gJ8mrxwfLqzyRQ-34" value="No" style="text;html=1;align=center;verticalAlign=middle;resizable=0;points=[];autosize=1;strokeColor=none;" vertex="1" parent="WIyWlLk6GJQsqaUBKTNV-1">
          <mxGeometry x="1246" y="820" width="30" height="20" as="geometry" />
        </mxCell>
        <mxCell id="hCko35gJ8mrxwfLqzyRQ-36" value="&lt;div&gt;&amp;nbsp; &amp;nbsp; static final SparseArray&amp;lt;ProcessInfo&amp;gt; sActiveProcessInfoSelfLocked = new SparseArray&amp;lt;&amp;gt;();&lt;/div&gt;&lt;div&gt;&lt;br&gt;&lt;/div&gt;" style="text;html=1;align=center;verticalAlign=middle;resizable=0;points=[];autosize=1;strokeColor=none;" vertex="1" parent="WIyWlLk6GJQsqaUBKTNV-1">
          <mxGeometry x="1680" y="80" width="530" height="30" as="geometry" />
        </mxCell>
        <mxCell id="hCko35gJ8mrxwfLqzyRQ-37" value="&lt;div&gt;checkComponentPermission(String permission, int pid, int uid,&lt;span&gt;&amp;nbsp;int owningUid, boolean exported)&lt;/span&gt;&lt;/div&gt;" style="text;html=1;align=center;verticalAlign=middle;resizable=0;points=[];autosize=1;strokeColor=none;" vertex="1" parent="WIyWlLk6GJQsqaUBKTNV-1">
          <mxGeometry x="1640" y="230" width="520" height="20" as="geometry" />
        </mxCell>
        <mxCell id="hCko35gJ8mrxwfLqzyRQ-38" value="&lt;div&gt;&amp;nbsp; &amp;nbsp; static final SparseArray&amp;lt;ProcessInfo&amp;gt; sActiveProcessInfoSelfLocked = new SparseArray&amp;lt;&amp;gt;();&lt;/div&gt;&lt;div&gt;&lt;br&gt;&lt;/div&gt;" style="text;html=1;align=center;verticalAlign=middle;resizable=0;points=[];autosize=1;strokeColor=none;" vertex="1" parent="WIyWlLk6GJQsqaUBKTNV-1">
          <mxGeometry x="1675" y="820" width="530" height="30" as="geometry" />
        </mxCell>
        <mxCell id="hCko35gJ8mrxwfLqzyRQ-39" value="&lt;div&gt;&amp;nbsp; &amp;nbsp; &amp;nbsp; &amp;nbsp; &amp;nbsp; &amp;nbsp; &amp;nbsp; &amp;nbsp; ProcessInfo procInfo = sActiveProcessInfoSelfLocked.get(pid);&lt;/div&gt;&lt;div&gt;&lt;br&gt;&lt;/div&gt;" style="text;html=1;align=center;verticalAlign=middle;resizable=0;points=[];autosize=1;strokeColor=none;" vertex="1" parent="WIyWlLk6GJQsqaUBKTNV-1">
          <mxGeometry x="1650" y="870" width="400" height="30" as="geometry" />
        </mxCell>
        <mxCell id="hCko35gJ8mrxwfLqzyRQ-40" value="&lt;div&gt;&amp;nbsp; &amp;nbsp; public ArraySet&amp;lt;String&amp;gt; deniedPermissions;&lt;/div&gt;&lt;div&gt;&lt;br&gt;&lt;/div&gt;" style="text;html=1;align=center;verticalAlign=middle;resizable=0;points=[];autosize=1;strokeColor=none;" vertex="1" parent="WIyWlLk6GJQsqaUBKTNV-1">
          <mxGeometry x="1675" y="930" width="260" height="30" as="geometry" />
        </mxCell>
        <mxCell id="hCko35gJ8mrxwfLqzyRQ-41" value="&lt;div&gt;&amp;nbsp; &amp;nbsp; /**&lt;/div&gt;&lt;div&gt;&amp;nbsp; &amp;nbsp; &amp;nbsp;* Creates a new ProcessInfo.&lt;/div&gt;&lt;div&gt;&amp;nbsp; &amp;nbsp; &amp;nbsp;*&lt;/div&gt;&lt;div&gt;&amp;nbsp; &amp;nbsp; &amp;nbsp;* @param name&lt;/div&gt;&lt;div&gt;&amp;nbsp; &amp;nbsp; &amp;nbsp;*&amp;nbsp; &amp;nbsp;The name of the process, fully-qualified based on the app&#39;s package name.&lt;/div&gt;&lt;div&gt;&amp;nbsp; &amp;nbsp; &amp;nbsp;* @param deniedPermissions&lt;/div&gt;&lt;div&gt;&amp;nbsp; &amp;nbsp; &amp;nbsp;*&amp;nbsp; &amp;nbsp;If non-null, these are permissions that are not allowed in this process.&lt;/div&gt;&lt;div&gt;&amp;nbsp; &amp;nbsp; &amp;nbsp;* @param gwpAsanMode&lt;/div&gt;&lt;div&gt;&amp;nbsp; &amp;nbsp; &amp;nbsp;*&amp;nbsp; &amp;nbsp;Indicates if the process has requested GWP-ASan to be enabled, disabled, or left unspecified.&lt;/div&gt;&lt;div&gt;&amp;nbsp; &amp;nbsp; &amp;nbsp;*/&lt;/div&gt;" style="text;html=1;align=left;verticalAlign=middle;resizable=0;points=[];autosize=1;strokeColor=none;" vertex="1" parent="WIyWlLk6GJQsqaUBKTNV-1">
          <mxGeometry x="1625" y="630" width="550" height="150" as="geometry" />
        </mxCell>
        <mxCell id="hCko35gJ8mrxwfLqzyRQ-50" value="" style="edgeStyle=orthogonalEdgeStyle;rounded=0;orthogonalLoop=1;jettySize=auto;html=1;endArrow=block;endFill=0;endSize=8;" edge="1" parent="WIyWlLk6GJQsqaUBKTNV-1" source="hCko35gJ8mrxwfLqzyRQ-46" target="hCko35gJ8mrxwfLqzyRQ-48">
          <mxGeometry relative="1" as="geometry" />
        </mxCell>
        <mxCell id="hCko35gJ8mrxwfLqzyRQ-53" style="edgeStyle=orthogonalEdgeStyle;rounded=0;orthogonalLoop=1;jettySize=auto;html=1;endArrow=block;endFill=0;endSize=8;entryX=0.5;entryY=0;entryDx=0;entryDy=0;" edge="1" parent="WIyWlLk6GJQsqaUBKTNV-1" source="hCko35gJ8mrxwfLqzyRQ-46" target="hCko35gJ8mrxwfLqzyRQ-7">
          <mxGeometry relative="1" as="geometry">
            <mxPoint x="1210" y="780" as="targetPoint" />
            <Array as="points">
              <mxPoint x="1400" y="985" />
              <mxPoint x="1400" y="350" />
              <mxPoint x="630" y="350" />
            </Array>
          </mxGeometry>
        </mxCell>
        <mxCell id="hCko35gJ8mrxwfLqzyRQ-46" value="procInfo.deniedPermissions != null" style="rhombus;whiteSpace=wrap;html=1;" vertex="1" parent="WIyWlLk6GJQsqaUBKTNV-1">
          <mxGeometry x="775" y="950" width="250" height="70" as="geometry" />
        </mxCell>
        <mxCell id="hCko35gJ8mrxwfLqzyRQ-54" style="edgeStyle=orthogonalEdgeStyle;rounded=0;orthogonalLoop=1;jettySize=auto;html=1;entryX=0.5;entryY=0;entryDx=0;entryDy=0;endArrow=block;endFill=0;endSize=8;" edge="1" parent="WIyWlLk6GJQsqaUBKTNV-1" source="hCko35gJ8mrxwfLqzyRQ-48" target="hCko35gJ8mrxwfLqzyRQ-7">
          <mxGeometry relative="1" as="geometry">
            <Array as="points">
              <mxPoint x="1400" y="1150" />
              <mxPoint x="1400" y="350" />
              <mxPoint x="630" y="350" />
            </Array>
          </mxGeometry>
        </mxCell>
        <mxCell id="hCko35gJ8mrxwfLqzyRQ-57" style="edgeStyle=orthogonalEdgeStyle;rounded=0;orthogonalLoop=1;jettySize=auto;html=1;entryX=0.5;entryY=0;entryDx=0;entryDy=0;endArrow=block;endFill=0;endSize=8;" edge="1" parent="WIyWlLk6GJQsqaUBKTNV-1" source="hCko35gJ8mrxwfLqzyRQ-48" target="hCko35gJ8mrxwfLqzyRQ-28">
          <mxGeometry relative="1" as="geometry" />
        </mxCell>
        <mxCell id="hCko35gJ8mrxwfLqzyRQ-48" value="&lt;span&gt;procInfo.deniedPermissions.contains(permission)&lt;/span&gt;" style="rhombus;whiteSpace=wrap;html=1;" vertex="1" parent="WIyWlLk6GJQsqaUBKTNV-1">
          <mxGeometry x="715" y="1110" width="370" height="80" as="geometry" />
        </mxCell>
        <mxCell id="hCko35gJ8mrxwfLqzyRQ-51" value="Yes" style="text;html=1;align=center;verticalAlign=middle;resizable=0;points=[];autosize=1;strokeColor=none;" vertex="1" parent="WIyWlLk6GJQsqaUBKTNV-1">
          <mxGeometry x="900" y="900" width="40" height="20" as="geometry" />
        </mxCell>
        <mxCell id="hCko35gJ8mrxwfLqzyRQ-52" value="Yes" style="text;html=1;align=center;verticalAlign=middle;resizable=0;points=[];autosize=1;strokeColor=none;" vertex="1" parent="WIyWlLk6GJQsqaUBKTNV-1">
          <mxGeometry x="900" y="1050" width="40" height="20" as="geometry" />
        </mxCell>
        <mxCell id="hCko35gJ8mrxwfLqzyRQ-55" value="No" style="text;html=1;align=center;verticalAlign=middle;resizable=0;points=[];autosize=1;strokeColor=none;" vertex="1" parent="WIyWlLk6GJQsqaUBKTNV-1">
          <mxGeometry x="1246" y="1130" width="30" height="20" as="geometry" />
        </mxCell>
        <mxCell id="hCko35gJ8mrxwfLqzyRQ-56" value="No" style="text;html=1;align=center;verticalAlign=middle;resizable=0;points=[];autosize=1;strokeColor=none;" vertex="1" parent="WIyWlLk6GJQsqaUBKTNV-1">
          <mxGeometry x="1246" y="960" width="30" height="20" as="geometry" />
        </mxCell>
        <mxCell id="hCko35gJ8mrxwfLqzyRQ-58" value="Yes" style="text;html=1;align=center;verticalAlign=middle;resizable=0;points=[];autosize=1;strokeColor=none;" vertex="1" parent="WIyWlLk6GJQsqaUBKTNV-1">
          <mxGeometry x="900" y="1200" width="40" height="20" as="geometry" />
        </mxCell>
      </root>
    </mxGraphModel>
  </diagram>
</mxfile>
